<?xml version="1.0" encoding="utf-8" standalone="no"?>
<!DOCTYPE svg PUBLIC "-//W3C//DTD SVG 1.1//EN"
  "http://www.w3.org/Graphics/SVG/1.1/DTD/svg11.dtd">
<svg xmlns:xlink="http://www.w3.org/1999/xlink" width="720pt" height="288pt" viewBox="0 0 720 288" xmlns="http://www.w3.org/2000/svg" version="1.1">
 <metadata>
  <rdf:RDF xmlns:dc="http://purl.org/dc/elements/1.1/" xmlns:cc="http://creativecommons.org/ns#" xmlns:rdf="http://www.w3.org/1999/02/22-rdf-syntax-ns#">
   <cc:Work>
    <dc:type rdf:resource="http://purl.org/dc/dcmitype/StillImage"/>
    <dc:date>2026-08-21T22:10:48.629852</dc:date>
    <dc:format>image/svg+xml</dc:format>
    <dc:creator>
     <cc:Agent>
      <dc:title>Matplotlib v3.11.1, https://matplotlib.org/</dc:title>
     </cc:Agent>
    </dc:creator>
   </cc:Work>
  </rdf:RDF>
 </metadata>
 <defs>
  <style type="text/css">*{stroke-linejoin: round; stroke-linecap: butt}</style>
 </defs>
 <g id="figure_1">
  <g id="patch_1">
   <path d="M 0 288 
L 720 288 
L 720 0 
L 0 0 
z
" style="fill: #ffffff"/>
  </g>
  <g id="axes_1">
   <g id="patch_2">
    <path d="M 63.082344 245.555312 
L 359.28 245.555312 
L 359.28 10.8 
L 63.082344 10.8 
z
" style="fill: #ffffff"/>
   </g>
   <g id="patch_3">
    <path d="M 76.545874 68941.097193 
L 78.887357 68941.097193 
L 78.887357 71.913309 
L 76.545874 71.913309 
z
" clip-path="url(#pd0c7474492)" style="fill: #1f77b4"/>
   </g>
   <g id="patch_4">
    <path d="M 108.1559 68941.097193 
L 110.497384 68941.097193 
L 110.497384 67.90504 
L 108.1559 67.90504 
z
" clip-path="url(#pd0c7474492)" style="fill: #1f77b4"/>
   </g>
   <g id="patch_5">
    <path d="M 139.765927 68941.097193 
L 142.10741 68941.097193 
L 142.10741 67.574721 
L 139.765927 67.574721 
z
" clip-path="url(#pd0c7474492)" style="fill: #1f77b4"/>
   </g>
   <g id="patch_6">
    <path d="M 171.375953 68941.097193 
L 173.717437 68941.097193 
L 173.717437 67.395919 
L 171.375953 67.395919 
z
" clip-path="url(#pd0c7474492)" style="fill: #1f77b4"/>
   </g>
   <g id="patch_7">
    <path d="M 202.98598 68941.097193 
L 205.327463 68941.097193 
L 205.327463 68.243868 
L 202.98598 68.243868 
z
" clip-path="url(#pd0c7474492)" style="fill: #1f77b4"/>
   </g>
   <g id="patch_8">
    <path d="M 234.596006 68941.097193 
L 236.93749 68941.097193 
L 236.93749 65.715561 
L 234.596006 65.715561 
z
" clip-path="url(#pd0c7474492)" style="fill: #1f77b4"/>
   </g>
   <g id="patch_9">
    <path d="M 266.206033 68941.097193 
L 268.547516 68941.097193 
L 268.547516 64.359437 
L 266.206033 64.359437 
z
" clip-path="url(#pd0c7474492)" style="fill: #1f77b4"/>
   </g>
   <g id="patch_10">
    <path d="M 297.816059 68941.097193 
L 300.157543 68941.097193 
L 300.157543 57.929228 
L 297.816059 57.929228 
z
" clip-path="url(#pd0c7474492)" style="fill: #1f77b4"/>
   </g>
   <g id="patch_11">
    <path d="M 329.426086 68941.097193 
L 331.767569 68941.097193 
L 331.767569 61.486559 
L 329.426086 61.486559 
z
" clip-path="url(#pd0c7474492)" style="fill: #1f77b4"/>
   </g>
   <g id="patch_12">
    <path d="M 78.887357 68941.097193 
L 81.22884 68941.097193 
L 81.22884 63.939668 
L 78.887357 63.939668 
z
" clip-path="url(#pd0c7474492)" style="fill: #ff7f0e"/>
   </g>
   <g id="patch_13">
    <path d="M 110.497384 68941.097193 
L 112.838867 68941.097193 
L 112.838867 102.080338 
L 110.497384 102.080338 
z
" clip-path="url(#pd0c7474492)" style="fill: #ff7f0e"/>
   </g>
   <g id="patch_14">
    <path d="M 142.10741 68941.097193 
L 144.448894 68941.097193 
L 144.448894 130.105048 
L 142.10741 130.105048 
z
" clip-path="url(#pd0c7474492)" style="fill: #ff7f0e"/>
   </g>
   <g id="patch_15">
    <path d="M 173.717437 68941.097193 
L 176.05892 68941.097193 
L 176.05892 148.99092 
L 173.717437 148.99092 
z
" clip-path="url(#pd0c7474492)" style="fill: #ff7f0e"/>
   </g>
   <g id="patch_16">
    <path d="M 205.327463 68941.097193 
L 207.668947 68941.097193 
L 207.668947 153.203011 
L 205.327463 153.203011 
z
" clip-path="url(#pd0c7474492)" style="fill: #ff7f0e"/>
   </g>
   <g id="patch_17">
    <path d="M 236.93749 68941.097193 
L 239.278973 68941.097193 
L 239.278973 155.368297 
L 236.93749 155.368297 
z
" clip-path="url(#pd0c7474492)" style="fill: #ff7f0e"/>
   </g>
   <g id="patch_18">
    <path d="M 268.547516 68941.097193 
L 270.889 68941.097193 
L 270.889 152.988884 
L 268.547516 152.988884 
z
" clip-path="url(#pd0c7474492)" style="fill: #ff7f0e"/>
   </g>
   <g id="patch_19">
    <path d="M 300.157543 68941.097193 
L 302.499026 68941.097193 
L 302.499026 131.700685 
L 300.157543 131.700685 
z
" clip-path="url(#pd0c7474492)" style="fill: #ff7f0e"/>
   </g>
   <g id="patch_20">
    <path d="M 331.767569 68941.097193 
L 334.109053 68941.097193 
L 334.109053 134.369368 
L 331.767569 134.369368 
z
" clip-path="url(#pd0c7474492)" style="fill: #ff7f0e"/>
   </g>
   <g id="patch_21">
    <path d="M 81.22884 68941.097193 
L 83.570324 68941.097193 
L 83.570324 36.392241 
L 81.22884 36.392241 
z
" clip-path="url(#pd0c7474492)" style="fill: #2ca02c"/>
   </g>
   <g id="patch_22">
    <path d="M 112.838867 68941.097193 
L 115.18035 68941.097193 
L 115.18035 35.596748 
L 112.838867 35.596748 
z
" clip-path="url(#pd0c7474492)" style="fill: #2ca02c"/>
   </g>
   <g id="patch_23">
    <path d="M 144.448894 68941.097193 
L 146.790377 68941.097193 
L 146.790377 36.020459 
L 144.448894 36.020459 
z
" clip-path="url(#pd0c7474492)" style="fill: #2ca02c"/>
   </g>
   <g id="patch_24">
    <path d="M 176.05892 68941.097193 
L 178.400404 68941.097193 
L 178.400404 36.363875 
L 176.05892 36.363875 
z
" clip-path="url(#pd0c7474492)" style="fill: #2ca02c"/>
   </g>
   <g id="patch_25">
    <path d="M 207.668947 68941.097193 
L 210.01043 68941.097193 
L 210.01043 36.510831 
L 207.668947 36.510831 
z
" clip-path="url(#pd0c7474492)" style="fill: #2ca02c"/>
   </g>
   <g id="patch_26">
    <path d="M 239.278973 68941.097193 
L 241.620457 68941.097193 
L 241.620457 34.70976 
L 239.278973 34.70976 
z
" clip-path="url(#pd0c7474492)" style="fill: #2ca02c"/>
   </g>
   <g id="patch_27">
    <path d="M 270.889 68941.097193 
L 273.230483 68941.097193 
L 273.230483 32.598832 
L 270.889 32.598832 
z
" clip-path="url(#pd0c7474492)" style="fill: #2ca02c"/>
   </g>
   <g id="patch_28">
    <path d="M 302.499026 68941.097193 
L 304.84051 68941.097193 
L 304.84051 30.878306 
L 302.499026 30.878306 
z
" clip-path="url(#pd0c7474492)" style="fill: #2ca02c"/>
   </g>
   <g id="patch_29">
    <path d="M 334.109053 68941.097193 
L 336.450536 68941.097193 
L 336.450536 31.336622 
L 334.109053 31.336622 
z
" clip-path="url(#pd0c7474492)" style="fill: #2ca02c"/>
   </g>
   <g id="patch_30">
    <path d="M 83.570324 68941.097193 
L 85.911807 68941.097193 
L 85.911807 44.532697 
L 83.570324 44.532697 
z
" clip-path="url(#pd0c7474492)" style="fill: #9467bd"/>
   </g>
   <g id="patch_31">
    <path d="M 115.18035 68941.097193 
L 117.521834 68941.097193 
L 117.521834 43.595274 
L 115.18035 43.595274 
z
" clip-path="url(#pd0c7474492)" style="fill: #9467bd"/>
   </g>
   <g id="patch_32">
    <path d="M 146.790377 68941.097193 
L 149.13186 68941.097193 
L 149.13186 42.932418 
L 146.790377 42.932418 
z
" clip-path="url(#pd0c7474492)" style="fill: #9467bd"/>
   </g>
   <g id="patch_33">
    <path d="M 178.400404 68941.097193 
L 180.741887 68941.097193 
L 180.741887 43.690616 
L 178.400404 43.690616 
z
" clip-path="url(#pd0c7474492)" style="fill: #9467bd"/>
   </g>
   <g id="patch_34">
    <path d="M 210.01043 68941.097193 
L 212.351914 68941.097193 
L 212.351914 43.256327 
L 210.01043 43.256327 
z
" clip-path="url(#pd0c7474492)" style="fill: #9467bd"/>
   </g>
   <g id="patch_35">
    <path d="M 241.620457 68941.097193 
L 243.96194 68941.097193 
L 243.96194 42.674939 
L 241.620457 42.674939 
z
" clip-path="url(#pd0c7474492)" style="fill: #9467bd"/>
   </g>
   <g id="patch_36">
    <path d="M 273.230483 68941.097193 
L 275.571967 68941.097193 
L 275.571967 36.985385 
L 273.230483 36.985385 
z
" clip-path="url(#pd0c7474492)" style="fill: #9467bd"/>
   </g>
   <g id="patch_37">
    <path d="M 304.84051 68941.097193 
L 307.181993 68941.097193 
L 307.181993 26.311457 
L 304.84051 26.311457 
z
" clip-path="url(#pd0c7474492)" style="fill: #9467bd"/>
   </g>
   <g id="patch_38">
    <path d="M 336.450536 68941.097193 
L 338.79202 68941.097193 
L 338.79202 24.831071 
L 336.450536 24.831071 
z
" clip-path="url(#pd0c7474492)" style="fill: #9467bd"/>
   </g>
   <g id="patch_39">
    <path d="M 85.911807 68941.097193 
L 88.253291 68941.097193 
L 88.253291 52.243251 
L 85.911807 52.243251 
z
" clip-path="url(#pd0c7474492)" style="fill: #d62728"/>
   </g>
   <g id="patch_40">
    <path d="M 117.521834 68941.097193 
L 119.863317 68941.097193 
L 119.863317 90.663927 
L 117.521834 90.663927 
z
" clip-path="url(#pd0c7474492)" style="fill: #d62728"/>
   </g>
   <g id="patch_41">
    <path d="M 149.13186 68941.097193 
L 151.473344 68941.097193 
L 151.473344 120.924456 
L 149.13186 120.924456 
z
" clip-path="url(#pd0c7474492)" style="fill: #d62728"/>
   </g>
   <g id="patch_42">
    <path d="M 180.741887 68941.097193 
L 183.08337 68941.097193 
L 183.08337 137.541224 
L 180.741887 137.541224 
z
" clip-path="url(#pd0c7474492)" style="fill: #d62728"/>
   </g>
   <g id="patch_43">
    <path d="M 212.351914 68941.097193 
L 214.693397 68941.097193 
L 214.693397 137.031526 
L 212.351914 137.031526 
z
" clip-path="url(#pd0c7474492)" style="fill: #d62728"/>
   </g>
   <g id="patch_44">
    <path d="M 243.96194 68941.097193 
L 246.303424 68941.097193 
L 246.303424 111.342636 
L 243.96194 111.342636 
z
" clip-path="url(#pd0c7474492)" style="fill: #d62728"/>
   </g>
   <g id="patch_45">
    <path d="M 275.571967 68941.097193 
L 277.91345 68941.097193 
L 277.91345 103.25258 
L 275.571967 103.25258 
z
" clip-path="url(#pd0c7474492)" style="fill: #d62728"/>
   </g>
   <g id="patch_46">
    <path d="M 307.181993 68941.097193 
L 309.523477 68941.097193 
L 309.523477 98.344724 
L 307.181993 98.344724 
z
" clip-path="url(#pd0c7474492)" style="fill: #d62728"/>
   </g>
   <g id="patch_47">
    <path d="M 338.79202 68941.097193 
L 341.133503 68941.097193 
L 341.133503 91.052636 
L 338.79202 91.052636 
z
" clip-path="url(#pd0c7474492)" style="fill: #d62728"/>
   </g>
   <g id="patch_48">
    <path d="M 88.253291 68941.097193 
L 90.594774 68941.097193 
L 90.594774 44.867356 
L 88.253291 44.867356 
z
" clip-path="url(#pd0c7474492)" style="fill: #8c564b"/>
   </g>
   <g id="patch_49">
    <path d="M 119.863317 68941.097193 
L 122.204801 68941.097193 
L 122.204801 44.197 
L 119.863317 44.197 
z
" clip-path="url(#pd0c7474492)" style="fill: #8c564b"/>
   </g>
   <g id="patch_50">
    <path d="M 151.473344 68941.097193 
L 153.814827 68941.097193 
L 153.814827 45.116716 
L 151.473344 45.116716 
z
" clip-path="url(#pd0c7474492)" style="fill: #8c564b"/>
   </g>
   <g id="patch_51">
    <path d="M 183.08337 68941.097193 
L 185.424854 68941.097193 
L 185.424854 43.49305 
L 183.08337 43.49305 
z
" clip-path="url(#pd0c7474492)" style="fill: #8c564b"/>
   </g>
   <g id="patch_52">
    <path d="M 214.693397 68941.097193 
L 217.03488 68941.097193 
L 217.03488 42.2801 
L 214.693397 42.2801 
z
" clip-path="url(#pd0c7474492)" style="fill: #8c564b"/>
   </g>
   <g id="patch_53">
    <path d="M 246.303424 68941.097193 
L 248.644907 68941.097193 
L 248.644907 27.94236 
L 246.303424 27.94236 
z
" clip-path="url(#pd0c7474492)" style="fill: #8c564b"/>
   </g>
   <g id="patch_54">
    <path d="M 277.91345 68941.097193 
L 280.254934 68941.097193 
L 280.254934 25.737817 
L 277.91345 25.737817 
z
" clip-path="url(#pd0c7474492)" style="fill: #8c564b"/>
   </g>
   <g id="patch_55">
    <path d="M 309.523477 68941.097193 
L 311.86496 68941.097193 
L 311.86496 18.305477 
L 309.523477 18.305477 
z
" clip-path="url(#pd0c7474492)" style="fill: #8c564b"/>
   </g>
   <g id="patch_56">
    <path d="M 341.133503 68941.097193 
L 343.474987 68941.097193 
L 343.474987 17.684205 
L 341.133503 17.684205 
z
" clip-path="url(#pd0c7474492)" style="fill: #8c564b"/>
   </g>
   <g id="patch_57">
    <path d="M 90.594774 68941.097193 
L 92.936258 68941.097193 
L 92.936258 29.749137 
L 90.594774 29.749137 
z
" clip-path="url(#pd0c7474492)" style="fill: #e377c2"/>
   </g>
   <g id="patch_58">
    <path d="M 122.204801 68941.097193 
L 124.546284 68941.097193 
L 124.546284 30.379659 
L 122.204801 30.379659 
z
" clip-path="url(#pd0c7474492)" style="fill: #e377c2"/>
   </g>
   <g id="patch_59">
    <path d="M 153.814827 68941.097193 
L 156.156311 68941.097193 
L 156.156311 30.762407 
L 153.814827 30.762407 
z
" clip-path="url(#pd0c7474492)" style="fill: #e377c2"/>
   </g>
   <g id="patch_60">
    <path d="M 185.424854 68941.097193 
L 187.766337 68941.097193 
L 187.766337 30.697389 
L 185.424854 30.697389 
z
" clip-path="url(#pd0c7474492)" style="fill: #e377c2"/>
   </g>
   <g id="patch_61">
    <path d="M 217.03488 68941.097193 
L 219.376364 68941.097193 
L 219.376364 30.856472 
L 217.03488 30.856472 
z
" clip-path="url(#pd0c7474492)" style="fill: #e377c2"/>
   </g>
   <g id="patch_62">
    <path d="M 248.644907 68941.097193 
L 250.986391 68941.097193 
L 250.986391 29.960822 
L 248.644907 29.960822 
z
" clip-path="url(#pd0c7474492)" style="fill: #e377c2"/>
   </g>
   <g id="patch_63">
    <path d="M 280.254934 68941.097193 
L 282.596417 68941.097193 
L 282.596417 26.629856 
L 280.254934 26.629856 
z
" clip-path="url(#pd0c7474492)" style="fill: #e377c2"/>
   </g>
   <g id="patch_64">
    <path d="M 311.86496 68941.097193 
L 314.206444 68941.097193 
L 314.206444 25.849672 
L 311.86496 25.849672 
z
" clip-path="url(#pd0c7474492)" style="fill: #e377c2"/>
   </g>
   <g id="patch_65">
    <path d="M 343.474987 68941.097193 
L 345.81647 68941.097193 
L 345.81647 25.677398 
L 343.474987 25.677398 
z
" clip-path="url(#pd0c7474492)" style="fill: #e377c2"/>
   </g>
   <g id="matplotlib.axis_1">
    <g id="xtick_1">
     <g id="line2d_1">
      <defs>
       <path id="m5b154d5138" d="M 0 0 
L 0 3.5 
" style="stroke: #000000; stroke-width: 0.8"/>
      </defs>
      <g>
       <use xlink:href="#m5b154d5138" x="84.887408" y="245.555312" style="stroke: #000000; stroke-width: 0.8"/>
      </g>
     </g>
     <g id="text_1">
      <!-- 1 -->
      <g transform="translate(81.706158 260.152969) scale(0.1 -0.1)">
       <defs>
        <path id="DejaVuSans-14" d="M 794 531 
L 1825 531 
L 1825 4091 
L 703 3866 
L 703 4441 
L 1819 4666 
L 2450 4666 
L 2450 531 
L 3481 531 
L 3481 0 
L 794 0 
L 794 531 
z
" transform="scale(0.015625)"/>
       </defs>
       <use xlink:href="#DejaVuSans-14"/>
      </g>
     </g>
    </g>
    <g id="xtick_2">
     <g id="line2d_2">
      <g>
       <use xlink:href="#m5b154d5138" x="116.497435" y="245.555312" style="stroke: #000000; stroke-width: 0.8"/>
      </g>
     </g>
     <g id="text_2">
      <!-- 4 -->
      <g transform="translate(113.316185 260.152969) scale(0.1 -0.1)">
       <defs>
        <path id="DejaVuSans-17" d="M 2419 4116 
L 825 1625 
L 2419 1625 
L 2419 4116 
z
M 2253 4666 
L 3047 4666 
L 3047 1625 
L 3713 1625 
L 3713 1100 
L 3047 1100 
L 3047 0 
L 2419 0 
L 2419 1100 
L 313 1100 
L 313 1709 
L 2253 4666 
z
" transform="scale(0.015625)"/>
       </defs>
       <use xlink:href="#DejaVuSans-17"/>
      </g>
     </g>
    </g>
    <g id="xtick_3">
     <g id="line2d_3">
      <g>
       <use xlink:href="#m5b154d5138" x="148.107461" y="245.555312" style="stroke: #000000; stroke-width: 0.8"/>
      </g>
     </g>
     <g id="text_3">
      <!-- 16 -->
      <g transform="translate(141.744961 260.152969) scale(0.1 -0.1)">
       <defs>
        <path id="DejaVuSans-19" d="M 2113 2584 
Q 1688 2584 1439 2293 
Q 1191 2003 1191 1497 
Q 1191 994 1439 701 
Q 1688 409 2113 409 
Q 2538 409 2786 701 
Q 3034 994 3034 1497 
Q 3034 2003 2786 2293 
Q 2538 2584 2113 2584 
z
M 3366 4563 
L 3366 3988 
Q 3128 4100 2886 4159 
Q 2644 4219 2406 4219 
Q 1781 4219 1451 3797 
Q 1122 3375 1075 2522 
Q 1259 2794 1537 2939 
Q 1816 3084 2150 3084 
Q 2853 3084 3261 2657 
Q 3669 2231 3669 1497 
Q 3669 778 3244 343 
Q 2819 -91 2113 -91 
Q 1303 -91 875 529 
Q 447 1150 447 2328 
Q 447 3434 972 4092 
Q 1497 4750 2381 4750 
Q 2619 4750 2861 4703 
Q 3103 4656 3366 4563 
z
" transform="scale(0.015625)"/>
       </defs>
       <use xlink:href="#DejaVuSans-14"/>
       <use xlink:href="#DejaVuSans-19" transform="translate(63.625 0)"/>
      </g>
     </g>
    </g>
    <g id="xtick_4">
     <g id="line2d_4">
      <g>
       <use xlink:href="#m5b154d5138" x="179.717488" y="245.555312" style="stroke: #000000; stroke-width: 0.8"/>
      </g>
     </g>
     <g id="text_4">
      <!-- 64 -->
      <g transform="translate(173.354988 260.152969) scale(0.1 -0.1)">
       <use xlink:href="#DejaVuSans-19"/>
       <use xlink:href="#DejaVuSans-17" transform="translate(63.625 0)"/>
      </g>
     </g>
    </g>
    <g id="xtick_5">
     <g id="line2d_5">
      <g>
       <use xlink:href="#m5b154d5138" x="211.327515" y="245.555312" style="stroke: #000000; stroke-width: 0.8"/>
      </g>
     </g>
     <g id="text_5">
      <!-- 256 -->
      <g transform="translate(201.783765 260.152969) scale(0.1 -0.1)">
       <defs>
        <path id="DejaVuSans-15" d="M 1228 531 
L 3431 531 
L 3431 0 
L 469 0 
L 469 531 
Q 828 903 1448 1529 
Q 2069 2156 2228 2338 
Q 2531 2678 2651 2914 
Q 2772 3150 2772 3378 
Q 2772 3750 2511 3984 
Q 2250 4219 1831 4219 
Q 1534 4219 1204 4116 
Q 875 4013 500 3803 
L 500 4441 
Q 881 4594 1212 4672 
Q 1544 4750 1819 4750 
Q 2544 4750 2975 4387 
Q 3406 4025 3406 3419 
Q 3406 3131 3298 2873 
Q 3191 2616 2906 2266 
Q 2828 2175 2409 1742 
Q 1991 1309 1228 531 
z
" transform="scale(0.015625)"/>
        <path id="DejaVuSans-18" d="M 691 4666 
L 3169 4666 
L 3169 4134 
L 1269 4134 
L 1269 2991 
Q 1406 3038 1543 3061 
Q 1681 3084 1819 3084 
Q 2600 3084 3056 2656 
Q 3513 2228 3513 1497 
Q 3513 744 3044 326 
Q 2575 -91 1722 -91 
Q 1428 -91 1123 -41 
Q 819 9 494 109 
L 494 744 
Q 775 591 1075 516 
Q 1375 441 1709 441 
Q 2250 441 2565 725 
Q 2881 1009 2881 1497 
Q 2881 1984 2565 2268 
Q 2250 2553 1709 2553 
Q 1456 2553 1204 2497 
Q 953 2441 691 2322 
L 691 4666 
z
" transform="scale(0.015625)"/>
       </defs>
       <use xlink:href="#DejaVuSans-15"/>
       <use xlink:href="#DejaVuSans-18" transform="translate(63.625 0)"/>
       <use xlink:href="#DejaVuSans-19" transform="translate(127.25 0)"/>
      </g>
     </g>
    </g>
    <g id="xtick_6">
     <g id="line2d_6">
      <g>
       <use xlink:href="#m5b154d5138" x="242.937541" y="245.555312" style="stroke: #000000; stroke-width: 0.8"/>
      </g>
     </g>
     <g id="text_6">
      <!-- 1k -->
      <g transform="translate(236.860979 260.15375) scale(0.1 -0.1)">
       <defs>
        <path id="DejaVuSans-4e" d="M 581 4863 
L 1159 4863 
L 1159 1991 
L 2875 3500 
L 3609 3500 
L 1753 1863 
L 3688 0 
L 2938 0 
L 1159 1709 
L 1159 0 
L 581 0 
L 581 4863 
z
" transform="scale(0.015625)"/>
       </defs>
       <use xlink:href="#DejaVuSans-14"/>
       <use xlink:href="#DejaVuSans-4e" transform="translate(63.625 0)"/>
      </g>
     </g>
    </g>
    <g id="xtick_7">
     <g id="line2d_7">
      <g>
       <use xlink:href="#m5b154d5138" x="274.547568" y="245.555312" style="stroke: #000000; stroke-width: 0.8"/>
      </g>
     </g>
     <g id="text_7">
      <!-- 16k -->
      <g transform="translate(265.289755 260.15375) scale(0.1 -0.1)">
       <use xlink:href="#DejaVuSans-14"/>
       <use xlink:href="#DejaVuSans-19" transform="translate(63.625 0)"/>
       <use xlink:href="#DejaVuSans-4e" transform="translate(127.25 0)"/>
      </g>
     </g>
    </g>
    <g id="xtick_8">
     <g id="line2d_8">
      <g>
       <use xlink:href="#m5b154d5138" x="306.157594" y="245.555312" style="stroke: #000000; stroke-width: 0.8"/>
      </g>
     </g>
     <g id="text_8">
      <!-- 256k -->
      <g transform="translate(293.718532 260.15375) scale(0.1 -0.1)">
       <use xlink:href="#DejaVuSans-15"/>
       <use xlink:href="#DejaVuSans-18" transform="translate(63.625 0)"/>
       <use xlink:href="#DejaVuSans-19" transform="translate(127.25 0)"/>
       <use xlink:href="#DejaVuSans-4e" transform="translate(190.875 0)"/>
      </g>
     </g>
    </g>
    <g id="xtick_9">
     <g id="line2d_9">
      <g>
       <use xlink:href="#m5b154d5138" x="337.767621" y="245.555312" style="stroke: #000000; stroke-width: 0.8"/>
      </g>
     </g>
     <g id="text_9">
      <!-- 1M -->
      <g transform="translate(330.272308 260.152969) scale(0.1 -0.1)">
       <defs>
        <path id="DejaVuSans-30" d="M 628 4666 
L 1569 4666 
L 2759 1491 
L 3956 4666 
L 4897 4666 
L 4897 0 
L 4281 0 
L 4281 4097 
L 3078 897 
L 2444 897 
L 1241 4097 
L 1241 0 
L 628 0 
L 628 4666 
z
" transform="scale(0.015625)"/>
       </defs>
       <use xlink:href="#DejaVuSans-14"/>
       <use xlink:href="#DejaVuSans-30" transform="translate(63.625 0)"/>
      </g>
     </g>
    </g>
    <g id="text_10">
     <!-- #Entities -->
     <g transform="translate(188.283516 274.154531) scale(0.1 -0.1)">
      <defs>
       <path id="DejaVuSans-6" d="M 3272 2816 
L 2363 2816 
L 2100 1772 
L 3016 1772 
L 3272 2816 
z
M 2803 4594 
L 2478 3297 
L 3391 3297 
L 3719 4594 
L 4219 4594 
L 3897 3297 
L 4872 3297 
L 4872 2816 
L 3775 2816 
L 3519 1772 
L 4513 1772 
L 4513 1294 
L 3397 1294 
L 3072 0 
L 2572 0 
L 2894 1294 
L 1978 1294 
L 1656 0 
L 1153 0 
L 1478 1294 
L 494 1294 
L 494 1772 
L 1594 1772 
L 1856 2816 
L 850 2816 
L 850 3297 
L 1978 3297 
L 2297 4594 
L 2803 4594 
z
" transform="scale(0.015625)"/>
       <path id="DejaVuSans-28" d="M 628 4666 
L 3578 4666 
L 3578 4134 
L 1259 4134 
L 1259 2753 
L 3481 2753 
L 3481 2222 
L 1259 2222 
L 1259 531 
L 3634 531 
L 3634 0 
L 628 0 
L 628 4666 
z
" transform="scale(0.015625)"/>
       <path id="DejaVuSans-51" d="M 3513 2113 
L 3513 0 
L 2938 0 
L 2938 2094 
Q 2938 2591 2744 2837 
Q 2550 3084 2163 3084 
Q 1697 3084 1428 2787 
Q 1159 2491 1159 1978 
L 1159 0 
L 581 0 
L 581 3500 
L 1159 3500 
L 1159 2956 
Q 1366 3272 1645 3428 
Q 1925 3584 2291 3584 
Q 2894 3584 3203 3211 
Q 3513 2838 3513 2113 
z
" transform="scale(0.015625)"/>
       <path id="DejaVuSans-57" d="M 1172 4494 
L 1172 3500 
L 2356 3500 
L 2356 3053 
L 1172 3053 
L 1172 1153 
Q 1172 725 1289 603 
Q 1406 481 1766 481 
L 2356 481 
L 2356 0 
L 1766 0 
Q 1100 0 847 248 
Q 594 497 594 1153 
L 594 3053 
L 172 3053 
L 172 3500 
L 594 3500 
L 594 4494 
L 1172 4494 
z
" transform="scale(0.015625)"/>
       <path id="DejaVuSans-4c" d="M 603 3500 
L 1178 3500 
L 1178 0 
L 603 0 
L 603 3500 
z
M 603 4863 
L 1178 4863 
L 1178 4134 
L 603 4134 
L 603 4863 
z
" transform="scale(0.015625)"/>
       <path id="DejaVuSans-48" d="M 3597 1894 
L 3597 1613 
L 953 1613 
Q 991 1019 1311 708 
Q 1631 397 2203 397 
Q 2534 397 2845 478 
Q 3156 559 3463 722 
L 3463 178 
Q 3153 47 2828 -22 
Q 2503 -91 2169 -91 
Q 1331 -91 842 396 
Q 353 884 353 1716 
Q 353 2575 817 3079 
Q 1281 3584 2069 3584 
Q 2775 3584 3186 3129 
Q 3597 2675 3597 1894 
z
M 3022 2063 
Q 3016 2534 2758 2815 
Q 2500 3097 2075 3097 
Q 1594 3097 1305 2825 
Q 1016 2553 972 2059 
L 3022 2063 
z
" transform="scale(0.015625)"/>
       <path id="DejaVuSans-56" d="M 2834 3397 
L 2834 2853 
Q 2591 2978 2328 3040 
Q 2066 3103 1784 3103 
Q 1356 3103 1142 2972 
Q 928 2841 928 2578 
Q 928 2378 1081 2264 
Q 1234 2150 1697 2047 
L 1894 2003 
Q 2506 1872 2764 1633 
Q 3022 1394 3022 966 
Q 3022 478 2636 193 
Q 2250 -91 1575 -91 
Q 1294 -91 989 -36 
Q 684 19 347 128 
L 347 722 
Q 666 556 975 473 
Q 1284 391 1588 391 
Q 1994 391 2212 530 
Q 2431 669 2431 922 
Q 2431 1156 2273 1281 
Q 2116 1406 1581 1522 
L 1381 1569 
Q 847 1681 609 1914 
Q 372 2147 372 2553 
Q 372 3047 722 3315 
Q 1072 3584 1716 3584 
Q 2034 3584 2315 3537 
Q 2597 3491 2834 3397 
z
" transform="scale(0.015625)"/>
      </defs>
      <use xlink:href="#DejaVuSans-6"/>
      <use xlink:href="#DejaVuSans-28" transform="translate(83.796875 0)"/>
      <use xlink:href="#DejaVuSans-51" transform="translate(146.984375 0)"/>
      <use xlink:href="#DejaVuSans-57" transform="translate(210.359375 0)"/>
      <use xlink:href="#DejaVuSans-4c" transform="translate(249.5625 0)"/>
      <use xlink:href="#DejaVuSans-57" transform="translate(277.34375 0)"/>
      <use xlink:href="#DejaVuSans-4c" transform="translate(316.546875 0)"/>
      <use xlink:href="#DejaVuSans-48" transform="translate(344.328125 0)"/>
      <use xlink:href="#DejaVuSans-56" transform="translate(405.859375 0)"/>
     </g>
    </g>
   </g>
   <g id="matplotlib.axis_2">
    <g id="ytick_1">
     <g id="line2d_10">
      <defs>
       <path id="m0265471cc5" d="M 0 0 
L -3.5 0 
" style="stroke: #000000; stroke-width: 0.8"/>
      </defs>
      <g>
       <use xlink:href="#m0265471cc5" x="63.082344" y="245.555312" style="stroke: #000000; stroke-width: 0.8"/>
      </g>
     </g>
     <g id="text_11">
      <!-- 1ns -->
      <g transform="translate(38.172969 249.354141) scale(0.1 -0.1)">
       <use xlink:href="#DejaVuSans-14"/>
       <use xlink:href="#DejaVuSans-51" transform="translate(63.625 0)"/>
       <use xlink:href="#DejaVuSans-56" transform="translate(127 0)"/>
      </g>
     </g>
    </g>
    <g id="ytick_2">
     <g id="line2d_11">
      <g>
       <use xlink:href="#m0265471cc5" x="63.082344" y="176.859771" style="stroke: #000000; stroke-width: 0.8"/>
      </g>
     </g>
     <g id="text_12">
      <!-- 10ns -->
      <g transform="translate(31.810469 180.658599) scale(0.1 -0.1)">
       <defs>
        <path id="DejaVuSans-13" d="M 2034 4250 
Q 1547 4250 1301 3770 
Q 1056 3291 1056 2328 
Q 1056 1369 1301 889 
Q 1547 409 2034 409 
Q 2525 409 2770 889 
Q 3016 1369 3016 2328 
Q 3016 3291 2770 3770 
Q 2525 4250 2034 4250 
z
M 2034 4750 
Q 2819 4750 3233 4129 
Q 3647 3509 3647 2328 
Q 3647 1150 3233 529 
Q 2819 -91 2034 -91 
Q 1250 -91 836 529 
Q 422 1150 422 2328 
Q 422 3509 836 4129 
Q 1250 4750 2034 4750 
z
" transform="scale(0.015625)"/>
       </defs>
       <use xlink:href="#DejaVuSans-14"/>
       <use xlink:href="#DejaVuSans-13" transform="translate(63.625 0)"/>
       <use xlink:href="#DejaVuSans-51" transform="translate(127.25 0)"/>
       <use xlink:href="#DejaVuSans-56" transform="translate(190.625 0)"/>
      </g>
     </g>
    </g>
    <g id="ytick_3">
     <g id="line2d_12">
      <g>
       <use xlink:href="#m0265471cc5" x="63.082344" y="108.164229" style="stroke: #000000; stroke-width: 0.8"/>
      </g>
     </g>
     <g id="text_13">
      <!-- 100ns -->
      <g transform="translate(25.447969 111.963057) scale(0.1 -0.1)">
       <use xlink:href="#DejaVuSans-14"/>
       <use xlink:href="#DejaVuSans-13" transform="translate(63.625 0)"/>
       <use xlink:href="#DejaVuSans-13" transform="translate(127.25 0)"/>
       <use xlink:href="#DejaVuSans-51" transform="translate(190.875 0)"/>
       <use xlink:href="#DejaVuSans-56" transform="translate(254.25 0)"/>
      </g>
     </g>
    </g>
    <g id="ytick_4">
     <g id="line2d_13">
      <g>
       <use xlink:href="#m0265471cc5" x="63.082344" y="39.468687" style="stroke: #000000; stroke-width: 0.8"/>
      </g>
     </g>
     <g id="text_14">
      <!-- 1μs -->
      <g transform="translate(38.147969 43.267515) scale(0.1 -0.1)">
       <defs>
        <path id="DejaVuSans-350" d="M 544 -1331 
L 544 3500 
L 1119 3500 
L 1119 1325 
Q 1119 872 1334 640 
Q 1550 409 1972 409 
Q 2434 409 2667 671 
Q 2900 934 2900 1459 
L 2900 3500 
L 3475 3500 
L 3475 806 
Q 3475 619 3529 530 
Q 3584 441 3700 441 
Q 3728 441 3778 458 
Q 3828 475 3916 513 
L 3916 50 
Q 3788 -22 3673 -56 
Q 3559 -91 3450 -91 
Q 3234 -91 3106 31 
Q 2978 153 2931 403 
Q 2775 156 2548 32 
Q 2322 -91 2016 -91 
Q 1697 -91 1473 31 
Q 1250 153 1119 397 
L 1119 -1331 
L 544 -1331 
z
" transform="scale(0.015625)"/>
       </defs>
       <use xlink:href="#DejaVuSans-14"/>
       <use xlink:href="#DejaVuSans-350" transform="translate(63.625 0)"/>
       <use xlink:href="#DejaVuSans-56" transform="translate(127.25 0)"/>
      </g>
     </g>
    </g>
    <g id="ytick_5">
     <g id="line2d_14">
      <defs>
       <path id="mfdbd947d3a" d="M 0 0 
L -2 0 
" style="stroke: #000000; stroke-width: 0.6"/>
      </defs>
      <g>
       <use xlink:href="#mfdbd947d3a" x="63.082344" y="224.875894" style="stroke: #000000; stroke-width: 0.6"/>
      </g>
     </g>
    </g>
    <g id="ytick_6">
     <g id="line2d_15">
      <g>
       <use xlink:href="#mfdbd947d3a" x="63.082344" y="212.779209" style="stroke: #000000; stroke-width: 0.6"/>
      </g>
     </g>
    </g>
    <g id="ytick_7">
     <g id="line2d_16">
      <g>
       <use xlink:href="#mfdbd947d3a" x="63.082344" y="204.196475" style="stroke: #000000; stroke-width: 0.6"/>
      </g>
     </g>
    </g>
    <g id="ytick_8">
     <g id="line2d_17">
      <g>
       <use xlink:href="#mfdbd947d3a" x="63.082344" y="197.539189" style="stroke: #000000; stroke-width: 0.6"/>
      </g>
     </g>
    </g>
    <g id="ytick_9">
     <g id="line2d_18">
      <g>
       <use xlink:href="#mfdbd947d3a" x="63.082344" y="192.099791" style="stroke: #000000; stroke-width: 0.6"/>
      </g>
     </g>
    </g>
    <g id="ytick_10">
     <g id="line2d_19">
      <g>
       <use xlink:href="#mfdbd947d3a" x="63.082344" y="187.500845" style="stroke: #000000; stroke-width: 0.6"/>
      </g>
     </g>
    </g>
    <g id="ytick_11">
     <g id="line2d_20">
      <g>
       <use xlink:href="#mfdbd947d3a" x="63.082344" y="183.517056" style="stroke: #000000; stroke-width: 0.6"/>
      </g>
     </g>
    </g>
    <g id="ytick_12">
     <g id="line2d_21">
      <g>
       <use xlink:href="#mfdbd947d3a" x="63.082344" y="180.003106" style="stroke: #000000; stroke-width: 0.6"/>
      </g>
     </g>
    </g>
    <g id="ytick_13">
     <g id="line2d_22">
      <g>
       <use xlink:href="#mfdbd947d3a" x="63.082344" y="156.180352" style="stroke: #000000; stroke-width: 0.6"/>
      </g>
     </g>
    </g>
    <g id="ytick_14">
     <g id="line2d_23">
      <g>
       <use xlink:href="#mfdbd947d3a" x="63.082344" y="144.083667" style="stroke: #000000; stroke-width: 0.6"/>
      </g>
     </g>
    </g>
    <g id="ytick_15">
     <g id="line2d_24">
      <g>
       <use xlink:href="#mfdbd947d3a" x="63.082344" y="135.500933" style="stroke: #000000; stroke-width: 0.6"/>
      </g>
     </g>
    </g>
    <g id="ytick_16">
     <g id="line2d_25">
      <g>
       <use xlink:href="#mfdbd947d3a" x="63.082344" y="128.843647" style="stroke: #000000; stroke-width: 0.6"/>
      </g>
     </g>
    </g>
    <g id="ytick_17">
     <g id="line2d_26">
      <g>
       <use xlink:href="#mfdbd947d3a" x="63.082344" y="123.404249" style="stroke: #000000; stroke-width: 0.6"/>
      </g>
     </g>
    </g>
    <g id="ytick_18">
     <g id="line2d_27">
      <g>
       <use xlink:href="#mfdbd947d3a" x="63.082344" y="118.805303" style="stroke: #000000; stroke-width: 0.6"/>
      </g>
     </g>
    </g>
    <g id="ytick_19">
     <g id="line2d_28">
      <g>
       <use xlink:href="#mfdbd947d3a" x="63.082344" y="114.821515" style="stroke: #000000; stroke-width: 0.6"/>
      </g>
     </g>
    </g>
    <g id="ytick_20">
     <g id="line2d_29">
      <g>
       <use xlink:href="#mfdbd947d3a" x="63.082344" y="111.307564" style="stroke: #000000; stroke-width: 0.6"/>
      </g>
     </g>
    </g>
    <g id="ytick_21">
     <g id="line2d_30">
      <g>
       <use xlink:href="#mfdbd947d3a" x="63.082344" y="87.48481" style="stroke: #000000; stroke-width: 0.6"/>
      </g>
     </g>
    </g>
    <g id="ytick_22">
     <g id="line2d_31">
      <g>
       <use xlink:href="#mfdbd947d3a" x="63.082344" y="75.388126" style="stroke: #000000; stroke-width: 0.6"/>
      </g>
     </g>
    </g>
    <g id="ytick_23">
     <g id="line2d_32">
      <g>
       <use xlink:href="#mfdbd947d3a" x="63.082344" y="66.805391" style="stroke: #000000; stroke-width: 0.6"/>
      </g>
     </g>
    </g>
    <g id="ytick_24">
     <g id="line2d_33">
      <g>
       <use xlink:href="#mfdbd947d3a" x="63.082344" y="60.148106" style="stroke: #000000; stroke-width: 0.6"/>
      </g>
     </g>
    </g>
    <g id="ytick_25">
     <g id="line2d_34">
      <g>
       <use xlink:href="#mfdbd947d3a" x="63.082344" y="54.708707" style="stroke: #000000; stroke-width: 0.6"/>
      </g>
     </g>
    </g>
    <g id="ytick_26">
     <g id="line2d_35">
      <g>
       <use xlink:href="#mfdbd947d3a" x="63.082344" y="50.109761" style="stroke: #000000; stroke-width: 0.6"/>
      </g>
     </g>
    </g>
    <g id="ytick_27">
     <g id="line2d_36">
      <g>
       <use xlink:href="#mfdbd947d3a" x="63.082344" y="46.125973" style="stroke: #000000; stroke-width: 0.6"/>
      </g>
     </g>
    </g>
    <g id="ytick_28">
     <g id="line2d_37">
      <g>
       <use xlink:href="#mfdbd947d3a" x="63.082344" y="42.612022" style="stroke: #000000; stroke-width: 0.6"/>
      </g>
     </g>
    </g>
    <g id="ytick_29">
     <g id="line2d_38">
      <g>
       <use xlink:href="#mfdbd947d3a" x="63.082344" y="18.789268" style="stroke: #000000; stroke-width: 0.6"/>
      </g>
     </g>
    </g>
    <g id="text_15">
     <!-- Time per entity -->
     <g transform="translate(19.045625 166.412031) rotate(-90) scale(0.1 -0.1)">
      <defs>
       <path id="DejaVuSans-37" d="M -19 4666 
L 3928 4666 
L 3928 4134 
L 2272 4134 
L 2272 0 
L 1638 0 
L 1638 4134 
L -19 4134 
L -19 4666 
z
" transform="scale(0.015625)"/>
       <path id="DejaVuSans-50" d="M 3328 2828 
Q 3544 3216 3844 3400 
Q 4144 3584 4550 3584 
Q 5097 3584 5394 3201 
Q 5691 2819 5691 2113 
L 5691 0 
L 5113 0 
L 5113 2094 
Q 5113 2597 4934 2840 
Q 4756 3084 4391 3084 
Q 3944 3084 3684 2787 
Q 3425 2491 3425 1978 
L 3425 0 
L 2847 0 
L 2847 2094 
Q 2847 2600 2669 2842 
Q 2491 3084 2119 3084 
Q 1678 3084 1418 2786 
Q 1159 2488 1159 1978 
L 1159 0 
L 581 0 
L 581 3500 
L 1159 3500 
L 1159 2956 
Q 1356 3278 1631 3431 
Q 1906 3584 2284 3584 
Q 2666 3584 2933 3390 
Q 3200 3197 3328 2828 
z
" transform="scale(0.015625)"/>
       <path id="DejaVuSans-3" transform="scale(0.015625)"/>
       <path id="DejaVuSans-53" d="M 1159 525 
L 1159 -1331 
L 581 -1331 
L 581 3500 
L 1159 3500 
L 1159 2969 
Q 1341 3281 1617 3432 
Q 1894 3584 2278 3584 
Q 2916 3584 3314 3078 
Q 3713 2572 3713 1747 
Q 3713 922 3314 415 
Q 2916 -91 2278 -91 
Q 1894 -91 1617 61 
Q 1341 213 1159 525 
z
M 3116 1747 
Q 3116 2381 2855 2742 
Q 2594 3103 2138 3103 
Q 1681 3103 1420 2742 
Q 1159 2381 1159 1747 
Q 1159 1113 1420 752 
Q 1681 391 2138 391 
Q 2594 391 2855 752 
Q 3116 1113 3116 1747 
z
" transform="scale(0.015625)"/>
       <path id="DejaVuSans-55" d="M 2631 2963 
Q 2534 3019 2420 3045 
Q 2306 3072 2169 3072 
Q 1681 3072 1420 2755 
Q 1159 2438 1159 1844 
L 1159 0 
L 581 0 
L 581 3500 
L 1159 3500 
L 1159 2956 
Q 1341 3275 1631 3429 
Q 1922 3584 2338 3584 
Q 2397 3584 2469 3576 
Q 2541 3569 2628 3553 
L 2631 2963 
z
" transform="scale(0.015625)"/>
       <path id="DejaVuSans-5c" d="M 2059 -325 
Q 1816 -950 1584 -1140 
Q 1353 -1331 966 -1331 
L 506 -1331 
L 506 -850 
L 844 -850 
Q 1081 -850 1212 -737 
Q 1344 -625 1503 -206 
L 1606 56 
L 191 3500 
L 800 3500 
L 1894 763 
L 2988 3500 
L 3597 3500 
L 2059 -325 
z
" transform="scale(0.015625)"/>
      </defs>
      <use xlink:href="#DejaVuSans-37"/>
      <use xlink:href="#DejaVuSans-4c" transform="translate(58 0)"/>
      <use xlink:href="#DejaVuSans-50" transform="translate(85.78125 0)"/>
      <use xlink:href="#DejaVuSans-48" transform="translate(183.1875 0)"/>
      <use xlink:href="#DejaVuSans-3" transform="translate(244.71875 0)"/>
      <use xlink:href="#DejaVuSans-53" transform="translate(276.5 0)"/>
      <use xlink:href="#DejaVuSans-48" transform="translate(339.984375 0)"/>
      <use xlink:href="#DejaVuSans-55" transform="translate(401.515625 0)"/>
      <use xlink:href="#DejaVuSans-3" transform="translate(442.625 0)"/>
      <use xlink:href="#DejaVuSans-48" transform="translate(474.40625 0)"/>
      <use xlink:href="#DejaVuSans-51" transform="translate(535.9375 0)"/>
      <use xlink:href="#DejaVuSans-57" transform="translate(599.3125 0)"/>
      <use xlink:href="#DejaVuSans-4c" transform="translate(638.515625 0)"/>
      <use xlink:href="#DejaVuSans-57" transform="translate(666.296875 0)"/>
      <use xlink:href="#DejaVuSans-5c" transform="translate(705.5 0)"/>
     </g>
    </g>
   </g>
   <g id="patch_66">
    <path d="M 63.082344 245.555312 
L 63.082344 10.8 
" style="fill: none; stroke: #000000; stroke-width: 0.8; stroke-linejoin: miter; stroke-linecap: square"/>
   </g>
   <g id="patch_67">
    <path d="M 359.28 245.555312 
L 359.28 10.8 
" style="fill: none; stroke: #000000; stroke-width: 0.8; stroke-linejoin: miter; stroke-linecap: square"/>
   </g>
   <g id="patch_68">
    <path d="M 63.082344 245.555312 
L 359.28 245.555312 
" style="fill: none; stroke: #000000; stroke-width: 0.8; stroke-linejoin: miter; stroke-linecap: square"/>
   </g>
   <g id="patch_69">
    <path d="M 63.082344 10.8 
L 359.28 10.8 
" style="fill: none; stroke: #000000; stroke-width: 0.8; stroke-linejoin: miter; stroke-linecap: square"/>
   </g>
  </g>
  <g id="axes_2">
   <g id="patch_70">
    <path d="M 413.002344 245.555312 
L 709.2 245.555312 
L 709.2 10.8 
L 413.002344 10.8 
z
" style="fill: #ffffff"/>
   </g>
   <g id="matplotlib.axis_3">
    <g id="xtick_10">
     <g id="line2d_39">
      <g>
       <use xlink:href="#m5b154d5138" x="426.465874" y="245.555312" style="stroke: #000000; stroke-width: 0.8"/>
      </g>
     </g>
     <g id="text_16">
      <!-- 1 -->
      <g transform="translate(423.284624 260.152969) scale(0.1 -0.1)">
       <use xlink:href="#DejaVuSans-14"/>
      </g>
     </g>
    </g>
    <g id="xtick_11">
     <g id="line2d_40">
      <g>
       <use xlink:href="#m5b154d5138" x="453.485382" y="245.555312" style="stroke: #000000; stroke-width: 0.8"/>
      </g>
     </g>
     <g id="text_17">
      <!-- 4 -->
      <g transform="translate(450.304132 260.152969) scale(0.1 -0.1)">
       <use xlink:href="#DejaVuSans-17"/>
      </g>
     </g>
    </g>
    <g id="xtick_12">
     <g id="line2d_41">
      <g>
       <use xlink:href="#m5b154d5138" x="480.504891" y="245.555312" style="stroke: #000000; stroke-width: 0.8"/>
      </g>
     </g>
     <g id="text_18">
      <!-- 16 -->
      <g transform="translate(474.142391 260.152969) scale(0.1 -0.1)">
       <use xlink:href="#DejaVuSans-14"/>
       <use xlink:href="#DejaVuSans-19" transform="translate(63.625 0)"/>
      </g>
     </g>
    </g>
    <g id="xtick_13">
     <g id="line2d_42">
      <g>
       <use xlink:href="#m5b154d5138" x="507.5244" y="245.555312" style="stroke: #000000; stroke-width: 0.8"/>
      </g>
     </g>
     <g id="text_19">
      <!-- 64 -->
      <g transform="translate(501.1619 260.152969) scale(0.1 -0.1)">
       <use xlink:href="#DejaVuSans-19"/>
       <use xlink:href="#DejaVuSans-17" transform="translate(63.625 0)"/>
      </g>
     </g>
    </g>
    <g id="xtick_14">
     <g id="line2d_43">
      <g>
       <use xlink:href="#m5b154d5138" x="534.543909" y="245.555312" style="stroke: #000000; stroke-width: 0.8"/>
      </g>
     </g>
     <g id="text_20">
      <!-- 256 -->
      <g transform="translate(525.000159 260.152969) scale(0.1 -0.1)">
       <use xlink:href="#DejaVuSans-15"/>
       <use xlink:href="#DejaVuSans-18" transform="translate(63.625 0)"/>
       <use xlink:href="#DejaVuSans-19" transform="translate(127.25 0)"/>
      </g>
     </g>
    </g>
    <g id="xtick_15">
     <g id="line2d_44">
      <g>
       <use xlink:href="#m5b154d5138" x="561.563418" y="245.555312" style="stroke: #000000; stroke-width: 0.8"/>
      </g>
     </g>
     <g id="text_21">
      <!-- 1k -->
      <g transform="translate(555.486855 260.15375) scale(0.1 -0.1)">
       <use xlink:href="#DejaVuSans-14"/>
       <use xlink:href="#DejaVuSans-4e" transform="translate(63.625 0)"/>
      </g>
     </g>
    </g>
    <g id="xtick_16">
     <g id="line2d_45">
      <g>
       <use xlink:href="#m5b154d5138" x="615.14019" y="245.555312" style="stroke: #000000; stroke-width: 0.8"/>
      </g>
     </g>
     <g id="text_22">
      <!-- 16k -->
      <g transform="translate(605.882377 260.15375) scale(0.1 -0.1)">
       <use xlink:href="#DejaVuSans-14"/>
       <use xlink:href="#DejaVuSans-19" transform="translate(63.625 0)"/>
       <use xlink:href="#DejaVuSans-4e" transform="translate(127.25 0)"/>
      </g>
     </g>
    </g>
    <g id="xtick_17">
     <g id="line2d_46">
      <g>
       <use xlink:href="#m5b154d5138" x="669.179207" y="245.555312" style="stroke: #000000; stroke-width: 0.8"/>
      </g>
     </g>
     <g id="text_23">
      <!-- 256k -->
      <g transform="translate(656.740145 260.15375) scale(0.1 -0.1)">
       <use xlink:href="#DejaVuSans-15"/>
       <use xlink:href="#DejaVuSans-18" transform="translate(63.625 0)"/>
       <use xlink:href="#DejaVuSans-19" transform="translate(127.25 0)"/>
       <use xlink:href="#DejaVuSans-4e" transform="translate(190.875 0)"/>
      </g>
     </g>
    </g>
    <g id="xtick_18">
     <g id="line2d_47">
      <g>
       <use xlink:href="#m5b154d5138" x="695.73647" y="245.555312" style="stroke: #000000; stroke-width: 0.8"/>
      </g>
     </g>
     <g id="text_24">
      <!-- 1M -->
      <g transform="translate(688.241158 260.152969) scale(0.1 -0.1)">
       <use xlink:href="#DejaVuSans-14"/>
       <use xlink:href="#DejaVuSans-30" transform="translate(63.625 0)"/>
      </g>
     </g>
    </g>
    <g id="xtick_19">
     <g id="line2d_48">
      <defs>
       <path id="m0a059229d1" d="M 0 0 
L 0 2 
" style="stroke: #000000; stroke-width: 0.6"/>
      </defs>
      <g>
       <use xlink:href="#m0a059229d1" x="416.509649" y="245.555312" style="stroke: #000000; stroke-width: 0.6"/>
      </g>
     </g>
    </g>
    <g id="xtick_20">
     <g id="line2d_49">
      <g>
       <use xlink:href="#m0a059229d1" x="419.514116" y="245.555312" style="stroke: #000000; stroke-width: 0.6"/>
      </g>
     </g>
    </g>
    <g id="xtick_21">
     <g id="line2d_50">
      <g>
       <use xlink:href="#m0a059229d1" x="422.116704" y="245.555312" style="stroke: #000000; stroke-width: 0.6"/>
      </g>
     </g>
    </g>
    <g id="xtick_22">
     <g id="line2d_51">
      <g>
       <use xlink:href="#m0a059229d1" x="424.412349" y="245.555312" style="stroke: #000000; stroke-width: 0.6"/>
      </g>
     </g>
    </g>
    <g id="xtick_23">
     <g id="line2d_52">
      <g>
       <use xlink:href="#m0a059229d1" x="439.975628" y="245.555312" style="stroke: #000000; stroke-width: 0.6"/>
      </g>
     </g>
    </g>
    <g id="xtick_24">
     <g id="line2d_53">
      <g>
       <use xlink:href="#m0a059229d1" x="447.878328" y="245.555312" style="stroke: #000000; stroke-width: 0.6"/>
      </g>
     </g>
    </g>
    <g id="xtick_25">
     <g id="line2d_54">
      <g>
       <use xlink:href="#m0a059229d1" x="457.834552" y="245.555312" style="stroke: #000000; stroke-width: 0.6"/>
      </g>
     </g>
    </g>
    <g id="xtick_26">
     <g id="line2d_55">
      <g>
       <use xlink:href="#m0a059229d1" x="461.388082" y="245.555312" style="stroke: #000000; stroke-width: 0.6"/>
      </g>
     </g>
    </g>
    <g id="xtick_27">
     <g id="line2d_56">
      <g>
       <use xlink:href="#m0a059229d1" x="464.392549" y="245.555312" style="stroke: #000000; stroke-width: 0.6"/>
      </g>
     </g>
    </g>
    <g id="xtick_28">
     <g id="line2d_57">
      <g>
       <use xlink:href="#m0a059229d1" x="466.995137" y="245.555312" style="stroke: #000000; stroke-width: 0.6"/>
      </g>
     </g>
    </g>
    <g id="xtick_29">
     <g id="line2d_58">
      <g>
       <use xlink:href="#m0a059229d1" x="469.290782" y="245.555312" style="stroke: #000000; stroke-width: 0.6"/>
      </g>
     </g>
    </g>
    <g id="xtick_30">
     <g id="line2d_59">
      <g>
       <use xlink:href="#m0a059229d1" x="484.854061" y="245.555312" style="stroke: #000000; stroke-width: 0.6"/>
      </g>
     </g>
    </g>
    <g id="xtick_31">
     <g id="line2d_60">
      <g>
       <use xlink:href="#m0a059229d1" x="492.75676" y="245.555312" style="stroke: #000000; stroke-width: 0.6"/>
      </g>
     </g>
    </g>
    <g id="xtick_32">
     <g id="line2d_61">
      <g>
       <use xlink:href="#m0a059229d1" x="498.363815" y="245.555312" style="stroke: #000000; stroke-width: 0.6"/>
      </g>
     </g>
    </g>
    <g id="xtick_33">
     <g id="line2d_62">
      <g>
       <use xlink:href="#m0a059229d1" x="502.712985" y="245.555312" style="stroke: #000000; stroke-width: 0.6"/>
      </g>
     </g>
    </g>
    <g id="xtick_34">
     <g id="line2d_63">
      <g>
       <use xlink:href="#m0a059229d1" x="506.266515" y="245.555312" style="stroke: #000000; stroke-width: 0.6"/>
      </g>
     </g>
    </g>
    <g id="xtick_35">
     <g id="line2d_64">
      <g>
       <use xlink:href="#m0a059229d1" x="509.270982" y="245.555312" style="stroke: #000000; stroke-width: 0.6"/>
      </g>
     </g>
    </g>
    <g id="xtick_36">
     <g id="line2d_65">
      <g>
       <use xlink:href="#m0a059229d1" x="511.87357" y="245.555312" style="stroke: #000000; stroke-width: 0.6"/>
      </g>
     </g>
    </g>
    <g id="xtick_37">
     <g id="line2d_66">
      <g>
       <use xlink:href="#m0a059229d1" x="514.169215" y="245.555312" style="stroke: #000000; stroke-width: 0.6"/>
      </g>
     </g>
    </g>
    <g id="xtick_38">
     <g id="line2d_67">
      <g>
       <use xlink:href="#m0a059229d1" x="529.732494" y="245.555312" style="stroke: #000000; stroke-width: 0.6"/>
      </g>
     </g>
    </g>
    <g id="xtick_39">
     <g id="line2d_68">
      <g>
       <use xlink:href="#m0a059229d1" x="537.635193" y="245.555312" style="stroke: #000000; stroke-width: 0.6"/>
      </g>
     </g>
    </g>
    <g id="xtick_40">
     <g id="line2d_69">
      <g>
       <use xlink:href="#m0a059229d1" x="543.242248" y="245.555312" style="stroke: #000000; stroke-width: 0.6"/>
      </g>
     </g>
    </g>
    <g id="xtick_41">
     <g id="line2d_70">
      <g>
       <use xlink:href="#m0a059229d1" x="547.591417" y="245.555312" style="stroke: #000000; stroke-width: 0.6"/>
      </g>
     </g>
    </g>
    <g id="xtick_42">
     <g id="line2d_71">
      <g>
       <use xlink:href="#m0a059229d1" x="551.144948" y="245.555312" style="stroke: #000000; stroke-width: 0.6"/>
      </g>
     </g>
    </g>
    <g id="xtick_43">
     <g id="line2d_72">
      <g>
       <use xlink:href="#m0a059229d1" x="554.149415" y="245.555312" style="stroke: #000000; stroke-width: 0.6"/>
      </g>
     </g>
    </g>
    <g id="xtick_44">
     <g id="line2d_73">
      <g>
       <use xlink:href="#m0a059229d1" x="556.752002" y="245.555312" style="stroke: #000000; stroke-width: 0.6"/>
      </g>
     </g>
    </g>
    <g id="xtick_45">
     <g id="line2d_74">
      <g>
       <use xlink:href="#m0a059229d1" x="559.047647" y="245.555312" style="stroke: #000000; stroke-width: 0.6"/>
      </g>
     </g>
    </g>
    <g id="xtick_46">
     <g id="line2d_75">
      <g>
       <use xlink:href="#m0a059229d1" x="574.610926" y="245.555312" style="stroke: #000000; stroke-width: 0.6"/>
      </g>
     </g>
    </g>
    <g id="xtick_47">
     <g id="line2d_76">
      <g>
       <use xlink:href="#m0a059229d1" x="582.513626" y="245.555312" style="stroke: #000000; stroke-width: 0.6"/>
      </g>
     </g>
    </g>
    <g id="xtick_48">
     <g id="line2d_77">
      <g>
       <use xlink:href="#m0a059229d1" x="588.120681" y="245.555312" style="stroke: #000000; stroke-width: 0.6"/>
      </g>
     </g>
    </g>
    <g id="xtick_49">
     <g id="line2d_78">
      <g>
       <use xlink:href="#m0a059229d1" x="592.46985" y="245.555312" style="stroke: #000000; stroke-width: 0.6"/>
      </g>
     </g>
    </g>
    <g id="xtick_50">
     <g id="line2d_79">
      <g>
       <use xlink:href="#m0a059229d1" x="596.02338" y="245.555312" style="stroke: #000000; stroke-width: 0.6"/>
      </g>
     </g>
    </g>
    <g id="xtick_51">
     <g id="line2d_80">
      <g>
       <use xlink:href="#m0a059229d1" x="599.027847" y="245.555312" style="stroke: #000000; stroke-width: 0.6"/>
      </g>
     </g>
    </g>
    <g id="xtick_52">
     <g id="line2d_81">
      <g>
       <use xlink:href="#m0a059229d1" x="601.630435" y="245.555312" style="stroke: #000000; stroke-width: 0.6"/>
      </g>
     </g>
    </g>
    <g id="xtick_53">
     <g id="line2d_82">
      <g>
       <use xlink:href="#m0a059229d1" x="603.92608" y="245.555312" style="stroke: #000000; stroke-width: 0.6"/>
      </g>
     </g>
    </g>
    <g id="xtick_54">
     <g id="line2d_83">
      <g>
       <use xlink:href="#m0a059229d1" x="619.489359" y="245.555312" style="stroke: #000000; stroke-width: 0.6"/>
      </g>
     </g>
    </g>
    <g id="xtick_55">
     <g id="line2d_84">
      <g>
       <use xlink:href="#m0a059229d1" x="627.392059" y="245.555312" style="stroke: #000000; stroke-width: 0.6"/>
      </g>
     </g>
    </g>
    <g id="xtick_56">
     <g id="line2d_85">
      <g>
       <use xlink:href="#m0a059229d1" x="632.999113" y="245.555312" style="stroke: #000000; stroke-width: 0.6"/>
      </g>
     </g>
    </g>
    <g id="xtick_57">
     <g id="line2d_86">
      <g>
       <use xlink:href="#m0a059229d1" x="637.348283" y="245.555312" style="stroke: #000000; stroke-width: 0.6"/>
      </g>
     </g>
    </g>
    <g id="xtick_58">
     <g id="line2d_87">
      <g>
       <use xlink:href="#m0a059229d1" x="640.901813" y="245.555312" style="stroke: #000000; stroke-width: 0.6"/>
      </g>
     </g>
    </g>
    <g id="xtick_59">
     <g id="line2d_88">
      <g>
       <use xlink:href="#m0a059229d1" x="643.90628" y="245.555312" style="stroke: #000000; stroke-width: 0.6"/>
      </g>
     </g>
    </g>
    <g id="xtick_60">
     <g id="line2d_89">
      <g>
       <use xlink:href="#m0a059229d1" x="646.508868" y="245.555312" style="stroke: #000000; stroke-width: 0.6"/>
      </g>
     </g>
    </g>
    <g id="xtick_61">
     <g id="line2d_90">
      <g>
       <use xlink:href="#m0a059229d1" x="648.804513" y="245.555312" style="stroke: #000000; stroke-width: 0.6"/>
      </g>
     </g>
    </g>
    <g id="xtick_62">
     <g id="line2d_91">
      <g>
       <use xlink:href="#m0a059229d1" x="664.367792" y="245.555312" style="stroke: #000000; stroke-width: 0.6"/>
      </g>
     </g>
    </g>
    <g id="xtick_63">
     <g id="line2d_92">
      <g>
       <use xlink:href="#m0a059229d1" x="672.270492" y="245.555312" style="stroke: #000000; stroke-width: 0.6"/>
      </g>
     </g>
    </g>
    <g id="xtick_64">
     <g id="line2d_93">
      <g>
       <use xlink:href="#m0a059229d1" x="677.877546" y="245.555312" style="stroke: #000000; stroke-width: 0.6"/>
      </g>
     </g>
    </g>
    <g id="xtick_65">
     <g id="line2d_94">
      <g>
       <use xlink:href="#m0a059229d1" x="682.226716" y="245.555312" style="stroke: #000000; stroke-width: 0.6"/>
      </g>
     </g>
    </g>
    <g id="xtick_66">
     <g id="line2d_95">
      <g>
       <use xlink:href="#m0a059229d1" x="685.780246" y="245.555312" style="stroke: #000000; stroke-width: 0.6"/>
      </g>
     </g>
    </g>
    <g id="xtick_67">
     <g id="line2d_96">
      <g>
       <use xlink:href="#m0a059229d1" x="688.784713" y="245.555312" style="stroke: #000000; stroke-width: 0.6"/>
      </g>
     </g>
    </g>
    <g id="xtick_68">
     <g id="line2d_97">
      <g>
       <use xlink:href="#m0a059229d1" x="691.387301" y="245.555312" style="stroke: #000000; stroke-width: 0.6"/>
      </g>
     </g>
    </g>
    <g id="xtick_69">
     <g id="line2d_98">
      <g>
       <use xlink:href="#m0a059229d1" x="693.682946" y="245.555312" style="stroke: #000000; stroke-width: 0.6"/>
      </g>
     </g>
    </g>
    <g id="text_25">
     <!-- #Entities -->
     <g transform="translate(538.203516 274.154531) scale(0.1 -0.1)">
      <use xlink:href="#DejaVuSans-6"/>
      <use xlink:href="#DejaVuSans-28" transform="translate(83.796875 0)"/>
      <use xlink:href="#DejaVuSans-51" transform="translate(146.984375 0)"/>
      <use xlink:href="#DejaVuSans-57" transform="translate(210.359375 0)"/>
      <use xlink:href="#DejaVuSans-4c" transform="translate(249.5625 0)"/>
      <use xlink:href="#DejaVuSans-57" transform="translate(277.34375 0)"/>
      <use xlink:href="#DejaVuSans-4c" transform="translate(316.546875 0)"/>
      <use xlink:href="#DejaVuSans-48" transform="translate(344.328125 0)"/>
      <use xlink:href="#DejaVuSans-56" transform="translate(405.859375 0)"/>
     </g>
    </g>
   </g>
   <g id="matplotlib.axis_4">
    <g id="ytick_30">
     <g id="line2d_99">
      <g>
       <use xlink:href="#m0265471cc5" x="413.002344" y="245.555312" style="stroke: #000000; stroke-width: 0.8"/>
      </g>
     </g>
     <g id="text_26">
      <!-- 1ns -->
      <g transform="translate(388.092969 249.354141) scale(0.1 -0.1)">
       <use xlink:href="#DejaVuSans-14"/>
       <use xlink:href="#DejaVuSans-51" transform="translate(63.625 0)"/>
       <use xlink:href="#DejaVuSans-56" transform="translate(127 0)"/>
      </g>
     </g>
    </g>
    <g id="ytick_31">
     <g id="line2d_100">
      <g>
       <use xlink:href="#m0265471cc5" x="413.002344" y="172.624168" style="stroke: #000000; stroke-width: 0.8"/>
      </g>
     </g>
     <g id="text_27">
      <!-- 1μs -->
      <g transform="translate(388.067969 176.422997) scale(0.1 -0.1)">
       <use xlink:href="#DejaVuSans-14"/>
       <use xlink:href="#DejaVuSans-350" transform="translate(63.625 0)"/>
       <use xlink:href="#DejaVuSans-56" transform="translate(127.25 0)"/>
      </g>
     </g>
    </g>
    <g id="ytick_32">
     <g id="line2d_101">
      <g>
       <use xlink:href="#m0265471cc5" x="413.002344" y="99.693024" style="stroke: #000000; stroke-width: 0.8"/>
      </g>
     </g>
     <g id="text_28">
      <!-- 1ms -->
      <g transform="translate(384.689844 103.491853) scale(0.1 -0.1)">
       <use xlink:href="#DejaVuSans-14"/>
       <use xlink:href="#DejaVuSans-50" transform="translate(63.625 0)"/>
       <use xlink:href="#DejaVuSans-56" transform="translate(161.03125 0)"/>
      </g>
     </g>
    </g>
    <g id="text_29">
     <!-- Total time -->
     <g transform="translate(378.2875 152.740156) rotate(-90) scale(0.1 -0.1)">
      <defs>
       <path id="DejaVuSans-52" d="M 1959 3097 
Q 1497 3097 1228 2736 
Q 959 2375 959 1747 
Q 959 1119 1226 758 
Q 1494 397 1959 397 
Q 2419 397 2687 759 
Q 2956 1122 2956 1747 
Q 2956 2369 2687 2733 
Q 2419 3097 1959 3097 
z
M 1959 3584 
Q 2709 3584 3137 3096 
Q 3566 2609 3566 1747 
Q 3566 888 3137 398 
Q 2709 -91 1959 -91 
Q 1206 -91 779 398 
Q 353 888 353 1747 
Q 353 2609 779 3096 
Q 1206 3584 1959 3584 
z
" transform="scale(0.015625)"/>
       <path id="DejaVuSans-44" d="M 2194 1759 
Q 1497 1759 1228 1600 
Q 959 1441 959 1056 
Q 959 750 1161 570 
Q 1363 391 1709 391 
Q 2188 391 2477 730 
Q 2766 1069 2766 1631 
L 2766 1759 
L 2194 1759 
z
M 3341 1997 
L 3341 0 
L 2766 0 
L 2766 531 
Q 2569 213 2275 61 
Q 1981 -91 1556 -91 
Q 1019 -91 701 211 
Q 384 513 384 1019 
Q 384 1609 779 1909 
Q 1175 2209 1959 2209 
L 2766 2209 
L 2766 2266 
Q 2766 2663 2505 2880 
Q 2244 3097 1772 3097 
Q 1472 3097 1187 3025 
Q 903 2953 641 2809 
L 641 3341 
Q 956 3463 1253 3523 
Q 1550 3584 1831 3584 
Q 2591 3584 2966 3190 
Q 3341 2797 3341 1997 
z
" transform="scale(0.015625)"/>
       <path id="DejaVuSans-4f" d="M 603 4863 
L 1178 4863 
L 1178 0 
L 603 0 
L 603 4863 
z
" transform="scale(0.015625)"/>
      </defs>
      <use xlink:href="#DejaVuSans-37"/>
      <use xlink:href="#DejaVuSans-52" transform="translate(44.09375 0)"/>
      <use xlink:href="#DejaVuSans-57" transform="translate(105.28125 0)"/>
      <use xlink:href="#DejaVuSans-44" transform="translate(144.484375 0)"/>
      <use xlink:href="#DejaVuSans-4f" transform="translate(205.765625 0)"/>
      <use xlink:href="#DejaVuSans-3" transform="translate(233.546875 0)"/>
      <use xlink:href="#DejaVuSans-57" transform="translate(265.328125 0)"/>
      <use xlink:href="#DejaVuSans-4c" transform="translate(304.53125 0)"/>
      <use xlink:href="#DejaVuSans-50" transform="translate(332.3125 0)"/>
      <use xlink:href="#DejaVuSans-48" transform="translate(429.71875 0)"/>
     </g>
    </g>
   </g>
   <g id="line2d_102">
    <path d="M 426.465874 184.105862 
L 453.485382 168.051084 
L 480.504891 153.297881 
L 507.5244 138.598297 
L 534.543909 124.262066 
L 561.563418 108.731026 
L 615.14019 79.228893 
L 669.179207 47.680717 
L 695.73647 34.553694 
" clip-path="url(#p0e348b1613)" style="fill: none; stroke: #1f77b4; stroke-width: 1.5; stroke-linecap: square"/>
   </g>
   <g id="line2d_103">
    <path d="M 426.465874 181.284103 
L 453.485382 180.145239 
L 480.504891 175.42648 
L 507.5244 167.473615 
L 534.543909 154.327906 
L 561.563418 140.457862 
L 615.14019 110.593602 
L 669.179207 73.787393 
L 695.73647 60.34589 
" clip-path="url(#p0e348b1613)" style="fill: none; stroke: #ff7f0e; stroke-width: 1.5; stroke-linecap: square"/>
   </g>
   <g id="line2d_104">
    <path d="M 426.465874 171.535458 
L 453.485382 156.617636 
L 480.504891 142.131273 
L 507.5244 127.616496 
L 534.543909 113.032193 
L 561.563418 97.758511 
L 615.14019 67.989264 
L 669.179207 38.107778 
L 695.73647 23.884057 
" clip-path="url(#p0e348b1613)" style="fill: none; stroke: #2ca02c; stroke-width: 1.5; stroke-linecap: square"/>
   </g>
   <g id="line2d_105">
    <path d="M 426.465874 174.41625 
L 453.485382 159.448201 
L 480.504891 144.577318 
L 507.5244 130.209326 
L 534.543909 115.419329 
L 561.563418 100.577276 
L 615.14019 69.541603 
L 669.179207 36.491635 
L 695.73647 21.581835 
" clip-path="url(#p0e348b1613)" style="fill: none; stroke: #9467bd; stroke-width: 1.5; stroke-linecap: square"/>
   </g>
   <g id="line2d_106">
    <path d="M 426.465874 177.144906 
L 453.485382 176.105132 
L 480.504891 172.177598 
L 507.5244 163.421729 
L 534.543909 148.605046 
L 561.563418 124.877803 
L 615.14019 92.992627 
L 669.179207 61.98319 
L 695.73647 45.016711 
" clip-path="url(#p0e348b1613)" style="fill: none; stroke: #d62728; stroke-width: 1.5; stroke-linecap: square"/>
   </g>
   <g id="line2d_107">
    <path d="M 426.465874 174.534681 
L 453.485382 159.661144 
L 480.504891 145.35031 
L 507.5244 130.13941 
L 534.543909 115.073856 
L 561.563418 95.363625 
L 615.14019 65.561248 
L 669.179207 33.658432 
L 695.73647 19.05266 
" clip-path="url(#p0e348b1613)" style="fill: none; stroke: #8c564b; stroke-width: 1.5; stroke-linecap: square"/>
   </g>
   <g id="line2d_108">
    <path d="M 426.465874 169.184557 
L 453.485382 154.771382 
L 480.504891 140.270523 
L 507.5244 125.611206 
L 534.543909 111.031196 
L 561.563418 96.07793 
L 615.14019 65.876928 
L 669.179207 36.328216 
L 695.73647 21.881338 
" clip-path="url(#p0e348b1613)" style="fill: none; stroke: #e377c2; stroke-width: 1.5; stroke-linecap: square"/>
   </g>
   <g id="patch_71">
    <path d="M 413.002344 245.555312 
L 413.002344 10.8 
" style="fill: none; stroke: #000000; stroke-width: 0.8; stroke-linejoin: miter; stroke-linecap: square"/>
   </g>
   <g id="patch_72">
    <path d="M 709.2 245.555312 
L 709.2 10.8 
" style="fill: none; stroke: #000000; stroke-width: 0.8; stroke-linejoin: miter; stroke-linecap: square"/>
   </g>
   <g id="patch_73">
    <path d="M 413.002344 245.555312 
L 709.2 245.555312 
" style="fill: none; stroke: #000000; stroke-width: 0.8; stroke-linejoin: miter; stroke-linecap: square"/>
   </g>
   <g id="patch_74">
    <path d="M 413.002344 10.8 
L 709.2 10.8 
" style="fill: none; stroke: #000000; stroke-width: 0.8; stroke-linejoin: miter; stroke-linecap: square"/>
   </g>
   <g id="legend_1">
    <g id="patch_75">
     <path d="M 420.002344 123.805469 
L 507.958594 123.805469 
Q 509.958594 123.805469 509.958594 121.805469 
L 509.958594 17.8 
Q 509.958594 15.8 507.958594 15.8 
L 420.002344 15.8 
Q 418.002344 15.8 418.002344 17.8 
L 418.002344 121.805469 
Q 418.002344 123.805469 420.002344 123.805469 
z
" style="fill: #ffffff; opacity: 0.5; stroke: #cccccc; stroke-linejoin: miter"/>
    </g>
    <g id="line2d_109">
     <path d="M 422.002344 23.898438 
L 432.002344 23.898438 
L 442.002344 23.898438 
" style="fill: none; stroke: #1f77b4; stroke-width: 1.5; stroke-linecap: square"/>
    </g>
    <g id="text_30">
     <!-- Ark -->
     <g transform="translate(450.002344 27.398438) scale(0.1 -0.1)">
      <defs>
       <path id="DejaVuSans-24" d="M 2188 4044 
L 1331 1722 
L 3047 1722 
L 2188 4044 
z
M 1831 4666 
L 2547 4666 
L 4325 0 
L 3669 0 
L 3244 1197 
L 1141 1197 
L 716 0 
L 50 0 
L 1831 4666 
z
" transform="scale(0.015625)"/>
      </defs>
      <use xlink:href="#DejaVuSans-24"/>
      <use xlink:href="#DejaVuSans-55" transform="translate(68.40625 0)"/>
      <use xlink:href="#DejaVuSans-4e" transform="translate(109.515625 0)"/>
     </g>
    </g>
    <g id="line2d_110">
     <path d="M 422.002344 38.899219 
L 432.002344 38.899219 
L 442.002344 38.899219 
" style="fill: none; stroke: #ff7f0e; stroke-width: 1.5; stroke-linecap: square"/>
    </g>
    <g id="text_31">
     <!-- Ark (batch) -->
     <g transform="translate(450.002344 42.399219) scale(0.1 -0.1)">
      <defs>
       <path id="DejaVuSans-b" d="M 1984 4856 
Q 1566 4138 1362 3434 
Q 1159 2731 1159 2009 
Q 1159 1288 1364 580 
Q 1569 -128 1984 -844 
L 1484 -844 
Q 1016 -109 783 600 
Q 550 1309 550 2009 
Q 550 2706 781 3412 
Q 1013 4119 1484 4856 
L 1984 4856 
z
" transform="scale(0.015625)"/>
       <path id="DejaVuSans-45" d="M 3116 1747 
Q 3116 2381 2855 2742 
Q 2594 3103 2138 3103 
Q 1681 3103 1420 2742 
Q 1159 2381 1159 1747 
Q 1159 1113 1420 752 
Q 1681 391 2138 391 
Q 2594 391 2855 752 
Q 3116 1113 3116 1747 
z
M 1159 2969 
Q 1341 3281 1617 3432 
Q 1894 3584 2278 3584 
Q 2916 3584 3314 3078 
Q 3713 2572 3713 1747 
Q 3713 922 3314 415 
Q 2916 -91 2278 -91 
Q 1894 -91 1617 61 
Q 1341 213 1159 525 
L 1159 0 
L 581 0 
L 581 4863 
L 1159 4863 
L 1159 2969 
z
" transform="scale(0.015625)"/>
       <path id="DejaVuSans-46" d="M 3122 3366 
L 3122 2828 
Q 2878 2963 2633 3030 
Q 2388 3097 2138 3097 
Q 1578 3097 1268 2742 
Q 959 2388 959 1747 
Q 959 1106 1268 751 
Q 1578 397 2138 397 
Q 2388 397 2633 464 
Q 2878 531 3122 666 
L 3122 134 
Q 2881 22 2623 -34 
Q 2366 -91 2075 -91 
Q 1284 -91 818 406 
Q 353 903 353 1747 
Q 353 2603 823 3093 
Q 1294 3584 2113 3584 
Q 2378 3584 2631 3529 
Q 2884 3475 3122 3366 
z
" transform="scale(0.015625)"/>
       <path id="DejaVuSans-4b" d="M 3513 2113 
L 3513 0 
L 2938 0 
L 2938 2094 
Q 2938 2591 2744 2837 
Q 2550 3084 2163 3084 
Q 1697 3084 1428 2787 
Q 1159 2491 1159 1978 
L 1159 0 
L 581 0 
L 581 4863 
L 1159 4863 
L 1159 2956 
Q 1366 3272 1645 3428 
Q 1925 3584 2291 3584 
Q 2894 3584 3203 3211 
Q 3513 2838 3513 2113 
z
" transform="scale(0.015625)"/>
       <path id="DejaVuSans-c" d="M 513 4856 
L 1013 4856 
Q 1481 4119 1714 3412 
Q 1947 2706 1947 2009 
Q 1947 1309 1714 600 
Q 1481 -109 1013 -844 
L 513 -844 
Q 928 -128 1133 580 
Q 1338 1288 1338 2009 
Q 1338 2731 1133 3434 
Q 928 4138 513 4856 
z
" transform="scale(0.015625)"/>
      </defs>
      <use xlink:href="#DejaVuSans-24"/>
      <use xlink:href="#DejaVuSans-55" transform="translate(68.40625 0)"/>
      <use xlink:href="#DejaVuSans-4e" transform="translate(109.515625 0)"/>
      <use xlink:href="#DejaVuSans-3" transform="translate(167.421875 0)"/>
      <use xlink:href="#DejaVuSans-b" transform="translate(199.203125 0)"/>
      <use xlink:href="#DejaVuSans-45" transform="translate(238.21875 0)"/>
      <use xlink:href="#DejaVuSans-44" transform="translate(301.703125 0)"/>
      <use xlink:href="#DejaVuSans-57" transform="translate(362.984375 0)"/>
      <use xlink:href="#DejaVuSans-46" transform="translate(402.1875 0)"/>
      <use xlink:href="#DejaVuSans-4b" transform="translate(457.171875 0)"/>
      <use xlink:href="#DejaVuSans-c" transform="translate(520.546875 0)"/>
     </g>
    </g>
    <g id="line2d_111">
     <path d="M 422.002344 53.9 
L 432.002344 53.9 
L 442.002344 53.9 
" style="fill: none; stroke: #2ca02c; stroke-width: 1.5; stroke-linecap: square"/>
    </g>
    <g id="text_32">
     <!-- Donburi -->
     <g transform="translate(450.002344 57.4) scale(0.1 -0.1)">
      <defs>
       <path id="DejaVuSans-27" d="M 1259 4147 
L 1259 519 
L 2022 519 
Q 2988 519 3436 956 
Q 3884 1394 3884 2338 
Q 3884 3275 3436 3711 
Q 2988 4147 2022 4147 
L 1259 4147 
z
M 628 4666 
L 1925 4666 
Q 3281 4666 3915 4102 
Q 4550 3538 4550 2338 
Q 4550 1131 3912 565 
Q 3275 0 1925 0 
L 628 0 
L 628 4666 
z
" transform="scale(0.015625)"/>
       <path id="DejaVuSans-58" d="M 544 1381 
L 544 3500 
L 1119 3500 
L 1119 1403 
Q 1119 906 1312 657 
Q 1506 409 1894 409 
Q 2359 409 2629 706 
Q 2900 1003 2900 1516 
L 2900 3500 
L 3475 3500 
L 3475 0 
L 2900 0 
L 2900 538 
Q 2691 219 2414 64 
Q 2138 -91 1772 -91 
Q 1169 -91 856 284 
Q 544 659 544 1381 
z
M 1991 3584 
L 1991 3584 
z
" transform="scale(0.015625)"/>
      </defs>
      <use xlink:href="#DejaVuSans-27"/>
      <use xlink:href="#DejaVuSans-52" transform="translate(77 0)"/>
      <use xlink:href="#DejaVuSans-51" transform="translate(138.1875 0)"/>
      <use xlink:href="#DejaVuSans-45" transform="translate(201.5625 0)"/>
      <use xlink:href="#DejaVuSans-58" transform="translate(265.046875 0)"/>
      <use xlink:href="#DejaVuSans-55" transform="translate(328.421875 0)"/>
      <use xlink:href="#DejaVuSans-4c" transform="translate(369.53125 0)"/>
     </g>
    </g>
    <g id="line2d_112">
     <path d="M 422.002344 68.900781 
L 432.002344 68.900781 
L 442.002344 68.900781 
" style="fill: none; stroke: #9467bd; stroke-width: 1.5; stroke-linecap: square"/>
    </g>
    <g id="text_33">
     <!-- ggecs -->
     <g transform="translate(450.002344 72.400781) scale(0.1 -0.1)">
      <defs>
       <path id="DejaVuSans-4a" d="M 2906 1791 
Q 2906 2416 2648 2759 
Q 2391 3103 1925 3103 
Q 1463 3103 1205 2759 
Q 947 2416 947 1791 
Q 947 1169 1205 825 
Q 1463 481 1925 481 
Q 2391 481 2648 825 
Q 2906 1169 2906 1791 
z
M 3481 434 
Q 3481 -459 3084 -895 
Q 2688 -1331 1869 -1331 
Q 1566 -1331 1297 -1286 
Q 1028 -1241 775 -1147 
L 775 -588 
Q 1028 -725 1275 -790 
Q 1522 -856 1778 -856 
Q 2344 -856 2625 -561 
Q 2906 -266 2906 331 
L 2906 616 
Q 2728 306 2450 153 
Q 2172 0 1784 0 
Q 1141 0 747 490 
Q 353 981 353 1791 
Q 353 2603 747 3093 
Q 1141 3584 1784 3584 
Q 2172 3584 2450 3431 
Q 2728 3278 2906 2969 
L 2906 3500 
L 3481 3500 
L 3481 434 
z
" transform="scale(0.015625)"/>
      </defs>
      <use xlink:href="#DejaVuSans-4a"/>
      <use xlink:href="#DejaVuSans-4a" transform="translate(63.484375 0)"/>
      <use xlink:href="#DejaVuSans-48" transform="translate(126.96875 0)"/>
      <use xlink:href="#DejaVuSans-46" transform="translate(188.5 0)"/>
      <use xlink:href="#DejaVuSans-56" transform="translate(243.484375 0)"/>
     </g>
    </g>
    <g id="line2d_113">
     <path d="M 422.002344 83.901563 
L 432.002344 83.901563 
L 442.002344 83.901563 
" style="fill: none; stroke: #d62728; stroke-width: 1.5; stroke-linecap: square"/>
    </g>
    <g id="text_34">
     <!-- GOKe -->
     <g transform="translate(450.002344 87.401563) scale(0.1 -0.1)">
      <defs>
       <path id="DejaVuSans-2a" d="M 3809 666 
L 3809 1919 
L 2778 1919 
L 2778 2438 
L 4434 2438 
L 4434 434 
Q 4069 175 3628 42 
Q 3188 -91 2688 -91 
Q 1594 -91 976 548 
Q 359 1188 359 2328 
Q 359 3472 976 4111 
Q 1594 4750 2688 4750 
Q 3144 4750 3555 4637 
Q 3966 4525 4313 4306 
L 4313 3634 
Q 3963 3931 3569 4081 
Q 3175 4231 2741 4231 
Q 1884 4231 1454 3753 
Q 1025 3275 1025 2328 
Q 1025 1384 1454 906 
Q 1884 428 2741 428 
Q 3075 428 3337 486 
Q 3600 544 3809 666 
z
" transform="scale(0.015625)"/>
       <path id="DejaVuSans-32" d="M 2522 4238 
Q 1834 4238 1429 3725 
Q 1025 3213 1025 2328 
Q 1025 1447 1429 934 
Q 1834 422 2522 422 
Q 3209 422 3611 934 
Q 4013 1447 4013 2328 
Q 4013 3213 3611 3725 
Q 3209 4238 2522 4238 
z
M 2522 4750 
Q 3503 4750 4090 4092 
Q 4678 3434 4678 2328 
Q 4678 1225 4090 567 
Q 3503 -91 2522 -91 
Q 1538 -91 948 565 
Q 359 1222 359 2328 
Q 359 3434 948 4092 
Q 1538 4750 2522 4750 
z
" transform="scale(0.015625)"/>
       <path id="DejaVuSans-2e" d="M 628 4666 
L 1259 4666 
L 1259 2694 
L 3353 4666 
L 4166 4666 
L 1850 2491 
L 4331 0 
L 3500 0 
L 1259 2247 
L 1259 0 
L 628 0 
L 628 4666 
z
" transform="scale(0.015625)"/>
      </defs>
      <use xlink:href="#DejaVuSans-2a"/>
      <use xlink:href="#DejaVuSans-32" transform="translate(77.484375 0)"/>
      <use xlink:href="#DejaVuSans-2e" transform="translate(156.203125 0)"/>
      <use xlink:href="#DejaVuSans-48" transform="translate(216.796875 0)"/>
     </g>
    </g>
    <g id="line2d_114">
     <path d="M 422.002344 98.902344 
L 432.002344 98.902344 
L 442.002344 98.902344 
" style="fill: none; stroke: #8c564b; stroke-width: 1.5; stroke-linecap: square"/>
    </g>
    <g id="text_35">
     <!-- uot -->
     <g transform="translate(450.002344 102.402344) scale(0.1 -0.1)">
      <use xlink:href="#DejaVuSans-58"/>
      <use xlink:href="#DejaVuSans-52" transform="translate(63.375 0)"/>
      <use xlink:href="#DejaVuSans-57" transform="translate(124.5625 0)"/>
     </g>
    </g>
    <g id="line2d_115">
     <path d="M 422.002344 113.903125 
L 432.002344 113.903125 
L 442.002344 113.903125 
" style="fill: none; stroke: #e377c2; stroke-width: 1.5; stroke-linecap: square"/>
    </g>
    <g id="text_36">
     <!-- Volt -->
     <g transform="translate(450.002344 117.403125) scale(0.1 -0.1)">
      <defs>
       <path id="DejaVuSans-39" d="M 1831 0 
L 50 4666 
L 709 4666 
L 2188 738 
L 3669 4666 
L 4325 4666 
L 2547 0 
L 1831 0 
z
" transform="scale(0.015625)"/>
      </defs>
      <use xlink:href="#DejaVuSans-39"/>
      <use xlink:href="#DejaVuSans-52" transform="translate(60.640625 0)"/>
      <use xlink:href="#DejaVuSans-4f" transform="translate(121.828125 0)"/>
      <use xlink:href="#DejaVuSans-57" transform="translate(149.609375 0)"/>
     </g>
    </g>
   </g>
  </g>
 </g>
 <defs>
  <clipPath id="pd0c7474492">
   <rect x="63.082344" y="10.8" width="296.197656" height="234.755312"/>
  </clipPath>
  <clipPath id="p0e348b1613">
   <rect x="413.002344" y="10.8" width="296.197656" height="234.755312"/>
  </clipPath>
 </defs>
</svg>
